<?xml version="1.0" standalone="no"?>
<!DOCTYPE svg PUBLIC "-//W3C//DTD SVG 20010904//EN"
 "http://www.w3.org/TR/2001/REC-SVG-20010904/DTD/svg10.dtd">
<svg version="1.0" xmlns="http://www.w3.org/2000/svg"
 width="514.000000pt" height="579.000000pt" viewBox="0 0 514.000000 579.000000"
 preserveAspectRatio="xMidYMid meet">

<g transform="translate(0.000000,579.000000) scale(0.100000,-0.100000)"
fill="#000000" stroke="none">
<path d="M691 5210 c-143 -30 -254 -146 -282 -294 -6 -33 -8 -560 -7 -1397 l3
-1344 23 -57 c32 -80 99 -150 180 -190 l67 -33 405 -3 c548 -5 710 11 943 88
95 32 317 136 317 149 0 4 -25 22 -55 40 -30 18 -52 38 -48 44 3 6 1 7 -5 3
-13 -8 -51 18 -152 104 -82 70 -260 264 -260 284 0 4 -8 16 -19 27 -18 20 -20
20 -77 3 -47 -13 -115 -18 -331 -21 l-273 -5 0 947 0 947 273 -5 c312 -5 324
-7 507 -95 229 -110 417 -327 493 -568 14 -44 31 -126 38 -181 20 -161 -14
-359 -88 -506 l-24 -48 25 -43 c33 -56 110 -151 160 -195 22 -20 44 -41 50
-46 43 -42 189 -123 274 -152 l53 -18 19 25 c33 43 128 241 160 334 67 193 91
337 91 552 0 292 -71 570 -208 809 -25 44 -54 96 -65 115 -31 54 -58 91 -103
139 -22 24 -38 48 -37 55 2 6 1 9 -2 6 -3 -3 -48 36 -101 87 -52 51 -98 93
-101 93 -3 0 -31 20 -62 43 -31 24 -67 49 -80 56 -12 7 -20 16 -17 21 3 6 -1
7 -9 4 -8 -3 -47 13 -88 35 -150 81 -328 142 -523 178 -94 17 -990 28 -1064
13z"/>
<path d="M478 1200 l-28 -21 0 -314 c0 -391 -14 -360 167 -360 146 1 199 14
275 70 92 67 140 166 141 285 0 107 -29 179 -104 251 -81 80 -138 100 -299
106 -117 5 -127 4 -152 -17z m313 -166 c93 -63 121 -182 66 -276 -38 -65 -95
-97 -186 -105 l-71 -6 0 213 0 213 74 -5 c60 -4 81 -10 117 -34z"/>
<path d="M1250 850 l0 -340 195 0 c123 0 195 4 195 10 0 6 -68 10 -185 10
l-185 0 0 165 0 165 178 3 177 2 -177 3 -178 2 0 155 0 155 188 3 187 2 -197
3 -198 2 0 -340z"/>
<path d="M1820 1183 c2 -23 257 -667 265 -670 6 -2 70 150 141 337 72 188 126
339 120 337 -5 -2 -65 -146 -131 -320 -67 -174 -124 -319 -127 -322 -2 -2 -60
141 -129 320 -68 179 -127 325 -131 325 -5 0 -8 -3 -8 -7z"/>
</g>
</svg>
